<svg xmlns="http://www.w3.org/2000/svg" version="1.1" xmlns:xlink="http://www.w3.org/1999/xlink" xmlns:svgjs="http://svgjs.dev/svgjs" width="1000" height="1000" viewBox="0 0 1000 1000"><rect width="1000" height="1000" fill="#000000"></rect><g transform="matrix(0.7,0,0,0.7,150.07466666666664,351.27740937500005)"><svg viewBox="0 0 375 160" data-background-color="#ffffff" preserveAspectRatio="xMidYMid meet" height="426" width="1000" xmlns="http://www.w3.org/2000/svg" xmlns:xlink="http://www.w3.org/1999/xlink"><g id="tight-bounds" transform="matrix(1,0,0,1,-0.03976036071776434,-0.20218554687502888)"><svg viewBox="0 0 375.07952880859375 160.4044189453125" height="160.4044189453125" width="375.07952880859375"><g><svg></svg></g><g><svg viewBox="0 0 375.07952880859375 160.4044189453125" height="160.4044189453125" width="375.07952880859375"><g transform="matrix(1,0,0,1,-10.220239639282227,-45.622314453125)"><path xmlns="http://www.w3.org/2000/svg" d="M10.22 201.578v-155.956h375.08v155.956h-26.854l0-3.586h23.268v-148.784h-367.908v148.784h129.581v3.586z" fill="#8da6cb" fill-rule="nonzero" stroke="none" stroke-width="1" stroke-linecap="butt" stroke-linejoin="miter" stroke-miterlimit="10" stroke-dasharray="" stroke-dashoffset="0" font-family="none" font-weight="none" font-size="none" text-anchor="none" style="mix-blend-mode: normal" data-fill-palette-color="tertiary"></path><g><path xmlns="http://www.w3.org/2000/svg" d="M163.098 205.746h-4.349c-0.92 0-1.725-0.207-2.417-0.622-0.695-0.411-1.233-0.968-1.613-1.669-0.383-0.701-0.575-1.481-0.575-2.338v0-11.735h2.805v12.086c0 0.499 0.168 0.927 0.505 1.286 0.334 0.358 0.765 0.538 1.295 0.537v0h4.349zM167.984 205.746h-2.689v-11.923h2.689zM166.628 192.164v0c-0.468 0-0.873-0.171-1.216-0.515-0.343-0.343-0.514-0.748-0.514-1.215v0c0-0.468 0.171-0.873 0.514-1.216 0.343-0.343 0.748-0.514 1.216-0.514v0c0.483 0 0.893 0.171 1.229 0.514 0.334 0.343 0.5 0.748 0.501 1.216v0c0 0.468-0.167 0.873-0.501 1.215-0.337 0.343-0.747 0.514-1.229 0.515zM176.329 206.027v0c-0.623 0-1.18-0.171-1.669-0.515-0.492-0.343-0.848-0.803-1.066-1.379v0l-3.647-10.31h2.923l3.109 9.258c0.047 0.109 0.101 0.187 0.163 0.234 0.062 0.047 0.132 0.07 0.211 0.07v0c0.078 0 0.153-0.023 0.224-0.07 0.069-0.047 0.118-0.125 0.15-0.234v0l3.133-9.258h2.875l-3.67 10.31c-0.203 0.577-0.553 1.036-1.052 1.379-0.499 0.343-1.06 0.514-1.684 0.515zM187.387 205.746h-2.688v-11.923h2.688zM186.031 192.164v0c-0.468 0-0.873-0.171-1.215-0.515-0.343-0.343-0.514-0.748-0.515-1.215v0c0-0.468 0.171-0.873 0.515-1.216 0.343-0.343 0.748-0.514 1.215-0.514v0c0.483 0 0.893 0.171 1.23 0.514 0.334 0.343 0.5 0.748 0.5 1.216v0c0 0.468-0.167 0.873-0.5 1.215-0.337 0.343-0.747 0.514-1.23 0.515zM193.302 205.746h-2.689v-6.873c0-1.029 0.234-1.945 0.702-2.749 0.468-0.801 1.13-1.432 1.987-1.894 0.857-0.458 1.862-0.687 3.016-0.687v0c1.153 0 2.155 0.229 3.006 0.687 0.848 0.461 1.506 1.093 1.973 1.894 0.468 0.804 0.701 1.721 0.701 2.749v0 6.873h-2.665v-6.85c0-0.608-0.14-1.141-0.421-1.599-0.281-0.461-0.65-0.821-1.108-1.08-0.461-0.256-0.965-0.383-1.51-0.383v0c-0.53 0-1.024 0.128-1.482 0.383-0.461 0.259-0.828 0.619-1.099 1.08-0.274 0.458-0.411 0.991-0.411 1.599v0zM206.884 196.512h-2.688v-7.13h2.688zM218.901 205.746h-2.689v-17.066h2.689zM226.966 206.027v0c-1.138 0-2.12-0.281-2.946-0.842-0.826-0.561-1.46-1.314-1.903-2.258-0.446-0.941-0.669-1.981-0.668-3.119v0c0-1.184 0.254-2.249 0.762-3.193 0.505-0.941 1.23-1.689 2.174-2.244 0.941-0.552 2.067-0.828 3.376-0.828v0c1.294 0 2.397 0.276 3.31 0.828 0.91 0.555 1.612 1.303 2.104 2.244 0.489 0.944 0.734 1.993 0.734 3.146v0 5.985h-2.688v-2.221h-0.047c-0.234 0.436-0.538 0.845-0.912 1.225-0.374 0.383-0.834 0.692-1.379 0.926-0.545 0.234-1.184 0.351-1.917 0.351zM227.691 203.736v0c0.701 0 1.314-0.176 1.837-0.529 0.521-0.349 0.929-0.823 1.225-1.421 0.296-0.602 0.436-1.276 0.421-2.025v0c0-0.748-0.14-1.414-0.421-1.996-0.281-0.586-0.678-1.055-1.192-1.407-0.514-0.349-1.13-0.524-1.847-0.524v0c-0.748 0-1.387 0.175-1.917 0.524-0.53 0.352-0.935 0.824-1.216 1.416-0.281 0.592-0.421 1.262-0.42 2.011v0c0 0.733 0.14 1.4 0.42 2.001 0.281 0.598 0.683 1.072 1.207 1.421 0.521 0.352 1.155 0.528 1.903 0.529zM249.222 206.027v0c-0.639 0-1.203-0.156-1.693-0.468-0.492-0.312-0.871-0.81-1.136-1.496v0l-5.12-14.681h3.086l4.348 13.535c0.062 0.156 0.132 0.276 0.211 0.36 0.078 0.087 0.179 0.131 0.304 0.131v0c0.125 0 0.231-0.044 0.317-0.131 0.084-0.084 0.15-0.204 0.197-0.36v0l4.488-13.535h2.946l-5.12 14.681c-0.234 0.655-0.603 1.146-1.108 1.473-0.508 0.327-1.082 0.491-1.72 0.491zM261.495 205.746h-2.689v-11.923h2.689zM260.139 192.164v0c-0.468 0-0.873-0.171-1.216-0.515-0.343-0.343-0.514-0.748-0.514-1.215v0c0-0.468 0.171-0.873 0.514-1.216 0.343-0.343 0.748-0.514 1.216-0.514v0c0.483 0 0.893 0.171 1.23 0.514 0.334 0.343 0.5 0.748 0.5 1.216v0c0 0.468-0.167 0.873-0.5 1.215-0.337 0.343-0.747 0.514-1.23 0.515zM270.262 206.027v0c1.216 0 2.291-0.257 3.226-0.772 0.935-0.514 1.665-1.251 2.188-2.211 0.521-0.957 0.781-2.09 0.781-3.399v0-10.965h-2.689v6.944h-0.023c-0.249-0.421-0.577-0.787-0.982-1.099-0.405-0.312-0.857-0.553-1.356-0.725-0.499-0.171-1.029-0.257-1.59-0.257v0c-1.138 0-2.138 0.252-3.001 0.757-0.867 0.508-1.544 1.214-2.034 2.118-0.492 0.904-0.739 1.964-0.739 3.18v0c0 0.951 0.145 1.819 0.435 2.604 0.287 0.789 0.7 1.471 1.239 2.048 0.536 0.577 1.186 1.016 1.95 1.318 0.764 0.305 1.629 0.458 2.595 0.459zM270.262 203.736v0c-0.686 0-1.294-0.168-1.824-0.505-0.53-0.334-0.943-0.796-1.239-1.389-0.296-0.592-0.444-1.278-0.444-2.057v0c0-0.764 0.148-1.442 0.444-2.034 0.296-0.592 0.706-1.06 1.23-1.403 0.521-0.343 1.124-0.514 1.809-0.514v0c0.686 0 1.294 0.167 1.824 0.5 0.53 0.337 0.943 0.801 1.239 1.394 0.296 0.592 0.444 1.278 0.444 2.057v0c0 0.779-0.148 1.465-0.444 2.057-0.296 0.592-0.709 1.055-1.239 1.389-0.53 0.337-1.13 0.505-1.8 0.505zM284.429 206.027v0c-1.138 0-2.12-0.281-2.946-0.842-0.826-0.561-1.46-1.314-1.903-2.258-0.446-0.941-0.669-1.981-0.669-3.119v0c0-1.184 0.254-2.249 0.763-3.193 0.505-0.941 1.228-1.689 2.169-2.244 0.944-0.552 2.071-0.828 3.38-0.828v0c1.294 0 2.395 0.276 3.306 0.828 0.913 0.555 1.615 1.303 2.104 2.244 0.492 0.944 0.739 1.993 0.739 3.146v0 5.985h-2.689v-2.221h-0.046c-0.234 0.436-0.538 0.845-0.912 1.225-0.374 0.383-0.834 0.692-1.379 0.926-0.545 0.234-1.184 0.351-1.917 0.351zM285.153 203.736v0c0.701 0 1.312-0.176 1.833-0.529 0.524-0.349 0.934-0.823 1.23-1.421 0.296-0.602 0.436-1.276 0.421-2.025v0c0-0.748-0.14-1.414-0.421-1.996-0.281-0.586-0.678-1.055-1.192-1.407-0.514-0.349-1.13-0.524-1.847-0.524v0c-0.748 0-1.387 0.175-1.917 0.524-0.53 0.352-0.935 0.824-1.216 1.416-0.281 0.592-0.421 1.262-0.421 2.011v0c0 0.733 0.14 1.4 0.421 2.001 0.281 0.598 0.681 1.072 1.202 1.421 0.524 0.352 1.16 0.528 1.907 0.529zM309.607 205.746h-4.349c-0.92 0-1.725-0.207-2.417-0.622-0.695-0.411-1.233-0.968-1.613-1.669-0.383-0.701-0.575-1.481-0.575-2.338v0-11.735h2.805v12.086c0 0.499 0.168 0.927 0.505 1.286 0.334 0.358 0.765 0.538 1.295 0.537v0h4.349zM317.485 206.027v0c-1.231 0-2.322-0.277-3.273-0.833-0.951-0.552-1.702-1.3-2.254-2.244-0.555-0.941-0.832-1.996-0.832-3.165v0c0-1.169 0.277-2.226 0.832-3.17 0.552-0.941 1.303-1.689 2.254-2.244 0.951-0.552 2.042-0.828 3.273-0.828v0c1.216 0 2.299 0.276 3.249 0.828 0.951 0.555 1.703 1.303 2.259 2.244 0.552 0.944 0.828 2.001 0.827 3.17v0c0 1.169-0.276 2.224-0.827 3.165-0.555 0.944-1.308 1.693-2.259 2.244-0.951 0.555-2.034 0.832-3.249 0.833zM317.485 203.736v0c0.733 0 1.371-0.176 1.917-0.529 0.545-0.349 0.966-0.823 1.262-1.421 0.296-0.602 0.444-1.269 0.444-2.001v0c0-0.733-0.148-1.4-0.444-2.001-0.296-0.598-0.717-1.074-1.262-1.426-0.545-0.349-1.184-0.524-1.917-0.524v0c-0.748 0-1.39 0.175-1.926 0.524-0.539 0.352-0.96 0.828-1.263 1.426-0.305 0.602-0.458 1.269-0.458 2.001v0c0 0.733 0.153 1.4 0.458 2.001 0.302 0.598 0.723 1.072 1.263 1.421 0.536 0.352 1.178 0.528 1.926 0.529zM333.569 205.746h-1.45c-1.231 0-2.33-0.265-3.296-0.795-0.966-0.53-1.73-1.244-2.291-2.141-0.561-0.895-0.842-1.903-0.842-3.025v0c0-1.122 0.281-2.132 0.842-3.03 0.561-0.895 1.325-1.607 2.291-2.137 0.966-0.53 2.065-0.795 3.296-0.795v0h1.45v2.291h-1.496c-0.717 0-1.351 0.159-1.903 0.477-0.555 0.321-0.988 0.762-1.3 1.324-0.312 0.561-0.468 1.184-0.468 1.87v0c0 0.686 0.156 1.309 0.468 1.87 0.312 0.561 0.745 1.001 1.3 1.319 0.552 0.321 1.186 0.482 1.903 0.481v0h1.496zM340.746 206.027v0c-1.138 0-2.12-0.281-2.946-0.842-0.826-0.561-1.46-1.314-1.903-2.258-0.446-0.941-0.669-1.981-0.668-3.119v0c0-1.184 0.252-2.249 0.757-3.193 0.508-0.941 1.233-1.689 2.174-2.244 0.944-0.552 2.071-0.828 3.381-0.828v0c1.294 0 2.395 0.276 3.305 0.828 0.913 0.555 1.615 1.303 2.104 2.244 0.492 0.944 0.739 1.993 0.739 3.146v0 5.985h-2.688v-2.221h-0.047c-0.234 0.436-0.538 0.845-0.912 1.225-0.374 0.383-0.834 0.692-1.379 0.926-0.545 0.234-1.184 0.351-1.917 0.351zM341.471 203.736v0c0.701 0 1.312-0.176 1.832-0.529 0.524-0.349 0.934-0.823 1.23-1.421 0.296-0.602 0.436-1.276 0.421-2.025v0c0-0.748-0.14-1.414-0.421-1.996-0.281-0.586-0.678-1.055-1.192-1.407-0.514-0.349-1.13-0.524-1.847-0.524v0c-0.748 0-1.387 0.175-1.917 0.524-0.53 0.352-0.935 0.824-1.216 1.416-0.281 0.592-0.421 1.262-0.421 2.011v0c0 0.733 0.14 1.4 0.421 2.001 0.281 0.598 0.681 1.072 1.202 1.421 0.524 0.352 1.16 0.528 1.907 0.529z" fill="#ffffff" fill-rule="nonzero" stroke="none" stroke-width="1" stroke-linecap="butt" stroke-linejoin="miter" stroke-miterlimit="10" stroke-dasharray="" stroke-dashoffset="0" font-family="none" font-weight="none" font-size="none" text-anchor="none" style="mix-blend-mode: normal" data-fill-palette-color="secondary"></path></g></g><g transform="matrix(1,0,0,1,29.331764404296877,52.726650422878)"><svg viewBox="0 0 316.416 54.951118099556496" height="54.951118099556496" width="316.416"><g><svg viewBox="0 0 403.3414463736754 70.04722723922232" height="54.951118099556496" width="316.416"><g transform="matrix(1,0,0,1,0,9.680912013524942)"><svg viewBox="0 0 316.416 50.68540321217244" height="50.68540321217244" width="316.416"><g><svg viewBox="0 0 316.416 50.68540321217244" height="50.68540321217244" width="316.416"><g><svg viewBox="0 0 316.416 50.68540321217244" height="50.68540321217244" width="316.416"><g transform="matrix(1,0,0,1,0,0)"><svg width="316.416" viewBox="3.490000009536743 -37.0099983215332 231.0399932861328 37.0099983215332" height="50.68540321217244" data-palette-color="#011670"><g class="undefined-text-0" data-fill-palette-color="primary" id="text-0"><path d="M3.49 0L3.49-4.2 7.01-4.2 7.01-32.35 3.49-32.35 3.49-37.01 15.21-37.01 26.95-5.05 38.84-37.01 49.95-37.01 49.95-32.35 46.46-32.35 46.46-4.2 49.95-4.2 49.95 0 37.94 0 37.94-4.2 41.89-4.2 41.89-32.62 28.96 0 24.8 0 11.69-32.69 11.69-4.2 15.5-4.2 15.5 0 3.49 0ZM56.93-32.79L56.93-37.01 68.75-37.01 68.75-32.79 65.23-32.79 65.23-4.2 68.75-4.2 68.75 0 56.93 0 56.93-4.2 60.45-4.2 60.45-32.79 56.93-32.79ZM75.73-32.79L75.73-37.01 91.13-37.01Q93.6-37.01 95.69-36.36 97.77-35.72 99.3-34.46 100.83-33.2 101.68-31.32 102.53-29.44 102.53-27L102.53-27Q102.53-25.61 102.03-24.26 101.53-22.9 100.64-21.74 99.75-20.58 98.53-19.68 97.31-18.77 95.87-18.29L95.87-18.29Q96.48-18.02 97.1-17.52 97.72-17.02 98.27-16.3 98.82-15.58 99.27-14.66 99.73-13.75 100-12.7L100-12.7 102.05-4.64 105.24-4.64 105.29 0 98.09 0 95.33-11.25Q94.58-14.28 93.02-15.71 91.47-17.14 88.79-17.14L88.79-17.14 84.03-17.14 84.03-4.2 87.74-4.2 87.74 0 75.73 0 75.73-4.2 79.24-4.2 79.24-32.79 75.73-32.79ZM90.55-32.79L84.03-32.79 84.03-21.14 91.13-21.14Q92.52-21.14 93.68-21.51 94.84-21.88 95.69-22.61 96.53-23.34 97-24.43 97.48-25.51 97.48-26.95L97.48-26.95Q97.48-29.71 95.82-31.25 94.16-32.79 90.55-32.79L90.55-32.79ZM111.32-32.79L111.32-37.01 137.83-37.01 137.83-26.54 132.83-26.54 132.83-32.79 119.62-32.79 119.62-20.95 130.73-20.95 130.73-16.75 119.62-16.75 119.62-4.2 132.83-4.2 132.83-10.45 137.83-10.45 137.83 0 111.32 0 111.32-4.2 114.84-4.2 114.84-32.79 111.32-32.79ZM168.72-32.81L168.72-37.01 180.73-37.01 180.73-32.81 177.21-32.81 177.21-4.2 180.73-4.2 180.73 0 168.72 0 168.72-4.2 172.43-4.2 172.43-17.5 151.02-17.5 151.02-4.2 154.73-4.2 154.73 0 142.71 0 142.71-4.2 146.23-4.2 146.23-32.81 142.71-32.81 142.71-37.01 154.73-37.01 154.73-32.81 151.02-32.81 151.02-21.61 172.43-21.61 172.43-32.81 168.72-32.81ZM195.28 0L195.28-4.2 198.67-4.2 198.67-33.01 190.22-33.01 190.22-27.25 185.22-27.25 185.22-37.01 218.22-37.01 218.22-27.25 213.22-27.25 213.22-33.01 203.45-33.01 203.45-4.2 207.26-4.2 207.26 0 195.28 0ZM222.71-32.79L222.71-37.01 234.53-37.01 234.53-32.79 231.02-32.79 231.02-4.2 234.53-4.2 234.53 0 222.71 0 222.71-4.2 226.23-4.2 226.23-32.79 222.71-32.79Z" fill="#ffffff" data-fill-palette-color="primary"></path></g></svg></g></svg></g></svg></g></svg></g><g transform="matrix(1,0,0,1,328.3816072487168,0)"><svg viewBox="0 0 74.9598391249586 70.04722723922232" height="70.04722723922232" width="74.9598391249586"><g><svg xmlns="http://www.w3.org/2000/svg" xmlns:xlink="http://www.w3.org/1999/xlink" version="1.1" x="0" y="0" viewBox="5.900001525878906 12.600001335144043 88.5 82.70001220703125" enable-background="new 0 0 100 100" xml:space="preserve" height="70.04722723922232" width="74.9598391249586" class="icon-icon-0" data-fill-palette-color="accent" id="icon-0"><g fill="#020f20" data-fill-palette-color="accent"><circle fill="none" cx="14" cy="41.5" r="4.0"></circle><circle fill="none" cx="73.1" cy="20.9" r="4.0"></circle><circle fill="none" cx="85.8" cy="80.5" r="4.0"></circle><path fill="#ffffff" d="M88.8 72.7V59.5c0-1.6-1.3-3-3-3H72.2v-10h7.5c1.1 2 3.2 3.4 5.6 3.4 3.5 0 6.4-2.9 6.4-6.4 0-3.5-2.9-6.4-6.4-6.4-2.6 0-4.8 1.5-5.8 3.7l-7.3-0.1v-0.3c0-3.6-2.9-6.5-6.5-6.5H55.1V23.9h10.2c1.2 3.1 4.2 5.3 7.7 5.3 4.6 0 8.3-3.7 8.3-8.3s-3.7-8.3-8.3-8.3c-3.5 0-6.5 2.2-7.7 5.3H52.1c-1.6 0-3 1.3-3 3v13.1H36.7c-2.8 0-5.2 1.9-6.1 4.4h-8.7c-1.2-3.1-4.2-5.3-7.7-5.3-4.6 0-8.3 3.7-8.3 8.3s3.7 8.3 8.3 8.3c3.6 0 6.7-2.4 7.8-5.6l8.3 0.1v17.2h-3.5c-1.1-2-3.2-3.4-5.6-3.4-3.5 0-6.4 2.9-6.4 6.4 0 3.5 2.9 6.4 6.4 6.4 2.6 0 4.8-1.5 5.8-3.7l3.3 0v2.3c0 3.6 2.9 6.5 6.5 6.5h2.7v13c0 1.6 1.3 3 3 3h7.5c1.1 2 3.2 3.4 5.6 3.4 3.5 0 6.4-2.9 6.4-6.4 0-3.5-2.9-6.4-6.4-6.4-2.4 0-4.5 1.4-5.6 3.4h-4.5v-10h20.4c3.6 0 6.5-2.9 6.5-6.5v-6.9h10.7v10.2c-3.1 1.2-5.3 4.2-5.3 7.7 0 4.6 3.7 8.3 8.3 8.3 4.6 0 8.3-3.7 8.3-8.3C94.1 76.9 91.9 73.9 88.8 72.7zM73.1 16.9c2.2 0 4 1.8 4 4 0 2.2-1.8 4-4 4-2.2 0-4-1.8-4-4C69.1 18.7 70.9 16.9 73.1 16.9zM14 45.5c-2.2 0-4-1.8-4-4s1.8-4 4-4c2.2 0 4 1.8 4 4S16.3 45.5 14 45.5zM85.8 84.5c-2.2 0-4-1.8-4-4 0-2.2 1.8-4 4-4 2.2 0 4 1.8 4 4C89.9 82.7 88.1 84.5 85.8 84.5z" data-fill-palette-color="accent"></path></g></svg></g></svg></g></svg></g></svg></g></svg></g><defs></defs></svg><rect width="375.07952880859375" height="160.4044189453125" fill="none" stroke="none" visibility="hidden"></rect></g></svg></g></svg>