<svg xmlns="http://www.w3.org/2000/svg" version="1.1" xmlns:xlink="http://www.w3.org/1999/xlink" xmlns:svgjs="http://svgjs.dev/svgjs" width="1000" height="244" viewBox="0 0 1000 244"><g transform="matrix(1,0,0,1,2.384381134759508,-2.0917887725218236)"><svg viewBox="0 0 396 97" data-background-color="#ffffff" preserveAspectRatio="xMidYMid meet" height="244" width="1000" xmlns="http://www.w3.org/2000/svg" xmlns:xlink="http://www.w3.org/1999/xlink"><g id="tight-bounds" transform="matrix(1,0,0,1,0.2683303954471796,0.831571766125478)"><svg viewBox="0 0 395.5199999999999 95.04470733636744" height="95.04470733636744" width="395.5199999999999"><g><svg viewBox="0 0 542.2576873156115 130.30623784336507" height="95.04470733636744" width="395.5199999999999"><g transform="matrix(1,0,0,1,146.73768731561148,31.970985526376936)"><svg viewBox="0 0 395.52 66.3642667906112" height="66.3642667906112" width="395.52"><g><svg viewBox="0 0 395.52 66.3642667906112" height="66.3642667906112" width="395.52"><g><svg viewBox="0 0 395.52 66.3642667906112" height="66.3642667906112" width="395.52"><g transform="matrix(1,0,0,1,0,0)"><svg width="395.52" viewBox="1.850000023841858 -35.400001525878906 215.13999938964844 36.10000228881836" height="66.3642667906112" data-palette-color="#2300ff"><g class="undefined-text-0" data-fill-palette-color="primary" id="text-0"><path d="M43.6-35.4L43.6-35.4 43.6-34.4Q42-34.35 41.15-34.02 40.3-33.7 40.03-32.83 39.75-31.95 39.75-30.1L39.75-30.1 39.75-5.3Q39.75-3.5 40.05-2.6 40.35-1.7 41.18-1.4 42-1.1 43.6-1L43.6-1 43.6 0Q42.3-0.1 40.3-0.13 38.3-0.15 36.25-0.15L36.25-0.15Q34-0.15 32.02-0.13 30.05-0.1 28.85 0L28.85 0 28.85-1Q30.55-1.1 31.43-1.4 32.3-1.7 32.6-2.6 32.9-3.5 32.9-5.3L32.9-5.3 32.9-32.5 33.25-32.45 20.85 0.15 20.05 0.15 6.85-32.2 6.85-7.4Q6.85-5 7.15-3.68 7.45-2.35 8.47-1.78 9.5-1.2 11.6-1L11.6-1 11.6 0Q10.65-0.1 9.15-0.13 7.65-0.15 6.3-0.15L6.3-0.15Q5.1-0.15 3.88-0.13 2.65-0.1 1.85 0L1.85 0 1.85-1Q3.5-1.2 4.33-1.75 5.15-2.3 5.43-3.55 5.7-4.8 5.7-7L5.7-7 5.7-30.1Q5.7-31.95 5.43-32.83 5.15-33.7 4.33-34.02 3.5-34.35 1.85-34.4L1.85-34.4 1.85-35.4Q2.65-35.35 3.88-35.3 5.1-35.25 6.3-35.25L6.3-35.25Q8.15-35.25 9.9-35.3 11.65-35.35 13-35.4L13-35.4 23.75-8.55 22.65-7.65 33.1-35.25Q33.85-35.25 34.68-35.25 35.5-35.25 36.25-35.25L36.25-35.25Q38.3-35.25 40.3-35.3 42.3-35.35 43.6-35.4ZM61.8-35.4L61.8-35.4 61.8-34.4Q60.2-34.35 59.37-34.02 58.55-33.7 58.25-32.83 57.95-31.95 57.95-30.1L57.95-30.1 57.95-5.3Q57.95-3.5 58.25-2.6 58.55-1.7 59.37-1.4 60.2-1.1 61.8-1L61.8-1 61.8 0Q60.55-0.1 58.6-0.13 56.65-0.15 54.65-0.15L54.65-0.15Q52.4-0.15 50.45-0.13 48.5-0.1 47.25 0L47.25 0 47.25-1Q48.9-1.1 49.72-1.4 50.55-1.7 50.82-2.6 51.1-3.5 51.1-5.3L51.1-5.3 51.1-30.1Q51.1-31.95 50.82-32.83 50.55-33.7 49.72-34.02 48.9-34.35 47.25-34.4L47.25-34.4 47.25-35.4Q48.5-35.35 50.45-35.3 52.4-35.25 54.65-35.25L54.65-35.25Q56.65-35.25 58.6-35.3 60.55-35.35 61.8-35.4ZM65.45-34.4L65.45-35.4Q66.7-35.35 68.65-35.3 70.6-35.25 72.55-35.25L72.55-35.25Q75-35.25 77.2-35.3 79.4-35.35 80.3-35.35L80.3-35.35Q87-35.35 90.27-33 93.55-30.65 93.55-26.65L93.55-26.65Q93.55-25 92.9-23.28 92.25-21.55 90.65-20.1 89.05-18.65 86.27-17.73 83.5-16.8 79.2-16.8L79.2-16.8 74.4-16.8 74.4-17.8 78.7-17.8Q81.85-17.8 83.52-18.93 85.2-20.05 85.77-21.93 86.35-23.8 86.35-26.1L86.35-26.1Q86.35-30.05 84.8-32.23 83.25-34.4 79.45-34.4L79.45-34.4Q77.4-34.4 76.77-33.55 76.15-32.7 76.15-30.1L76.15-30.1 76.15-5.3Q76.15-3.5 76.45-2.6 76.75-1.7 77.57-1.4 78.4-1.1 80-1L80-1 80 0Q78.75-0.1 76.8-0.13 74.85-0.15 72.85-0.15L72.85-0.15Q70.6-0.15 68.65-0.13 66.7-0.1 65.45 0L65.45 0 65.45-1Q67.1-1.1 67.92-1.4 68.75-1.7 69.02-2.6 69.3-3.5 69.3-5.3L69.3-5.3 69.3-30.1Q69.3-31.95 69.02-32.83 68.75-33.7 67.92-34.02 67.1-34.35 65.45-34.4L65.45-34.4ZM74.5-16.8L74.4-17.65Q76.75-17.55 78.32-17.43 79.9-17.3 81.02-17.2 82.15-17.1 83.05-16.95L83.05-16.95Q87.2-16.55 89.17-15.03 91.15-13.5 91.8-10.4L91.8-10.4 92.95-5.25Q93.4-3.2 93.92-2.33 94.45-1.45 95.45-1.5L95.45-1.5Q96.15-1.5 96.65-1.88 97.15-2.25 97.65-2.9L97.65-2.9 98.35-2.3Q97.1-0.75 95.7-0.03 94.3 0.7 92.15 0.7L92.15 0.7Q89.75 0.7 88.1-0.43 86.45-1.55 85.85-4.7L85.85-4.7 84.9-9.7Q84.5-11.8 83.97-13.4 83.45-15 82.55-15.9 81.65-16.8 79.9-16.8L79.9-16.8 74.5-16.8ZM125.44-35.4L125.44-35.4Q125.24-33.35 125.17-31.43 125.09-29.5 125.09-28.5L125.09-28.5Q125.09-27.55 125.14-26.68 125.19-25.8 125.24-25.2L125.24-25.2 124.09-25.2Q123.69-28.65 122.79-30.63 121.89-32.6 120.37-33.43 118.84-34.25 116.39-34.25L116.39-34.25 113.64-34.25Q112.14-34.25 111.34-34 110.54-33.75 110.27-32.95 109.99-32.15 109.99-30.5L109.99-30.5 109.99-4.9Q109.99-3.3 110.27-2.48 110.54-1.65 111.34-1.4 112.14-1.15 113.64-1.15L113.64-1.15 116.49-1.15Q119.04-1.15 120.77-2.1 122.49-3.05 123.54-5.23 124.59-7.4 125.09-11.2L125.09-11.2 126.24-11.2Q126.09-9.65 126.09-7.2L126.09-7.2Q126.09-6.15 126.17-4.15 126.24-2.15 126.44 0L126.44 0Q123.89-0.1 120.69-0.13 117.49-0.15 114.99-0.15L114.99-0.15Q113.39-0.15 110.69-0.15 107.99-0.15 104.97-0.13 101.94-0.1 99.29 0L99.29 0 99.29-1Q100.94-1.1 101.77-1.4 102.59-1.7 102.87-2.6 103.14-3.5 103.14-5.3L103.14-5.3 103.14-30.1Q103.14-31.95 102.87-32.83 102.59-33.7 101.77-34.02 100.94-34.35 99.29-34.4L99.29-34.4 99.29-35.4Q101.94-35.35 104.97-35.3 107.99-35.25 110.69-35.25 113.39-35.25 114.99-35.25L114.99-35.25Q117.29-35.25 120.22-35.27 123.14-35.3 125.44-35.4ZM108.49-18.3L117.39-18.3Q117.39-18.3 117.39-17.8 117.39-17.3 117.39-17.3L117.39-17.3 108.49-17.3Q108.49-17.3 108.49-17.8 108.49-18.3 108.49-18.3L108.49-18.3ZM117.69-24.9L118.84-24.9Q118.64-22.05 118.67-20.55 118.69-19.05 118.69-17.8L118.69-17.8Q118.69-16.55 118.74-15.05 118.79-13.55 118.99-10.7L118.99-10.7 117.84-10.7Q117.59-12.4 117.07-13.93 116.54-15.45 115.42-16.38 114.29-17.3 112.19-17.3L112.19-17.3 112.19-18.3Q114.29-18.3 115.37-19.4 116.44-20.5 116.94-22.05 117.44-23.6 117.69-24.9L117.69-24.9ZM151.64 0L151.64 0 151.64-1Q153.29-1.1 154.12-1.4 154.94-1.7 155.22-2.6 155.49-3.5 155.49-5.3L155.49-5.3 155.49-30.1Q155.49-31.95 155.22-32.83 154.94-33.7 154.12-34.02 153.29-34.35 151.64-34.4L151.64-34.4 151.64-35.4Q152.99-35.35 154.99-35.3 156.99-35.25 158.99-35.25L158.99-35.25Q161.19-35.25 163.12-35.3 165.04-35.35 166.19-35.4L166.19-35.4 166.19-34.4Q164.59-34.35 163.77-34.02 162.94-33.7 162.64-32.83 162.34-31.95 162.34-30.1L162.34-30.1 162.34-5.3Q162.34-3.5 162.64-2.6 162.94-1.7 163.77-1.4 164.59-1.1 166.19-1L166.19-1 166.19 0Q165.04-0.1 163.12-0.13 161.19-0.15 158.99-0.15L158.99-0.15Q156.99-0.15 154.99-0.13 152.99-0.1 151.64 0ZM130.54 0L130.54 0 130.54-1Q132.19-1.1 133.02-1.4 133.84-1.7 134.12-2.6 134.39-3.5 134.39-5.3L134.39-5.3 134.39-30.1Q134.39-31.95 134.12-32.83 133.84-33.7 133.02-34.02 132.19-34.35 130.54-34.4L130.54-34.4 130.54-35.4Q131.79-35.35 133.74-35.3 135.69-35.25 137.94-35.25L137.94-35.25Q139.94-35.25 141.89-35.3 143.84-35.35 145.09-35.4L145.09-35.4 145.09-34.4Q143.49-34.35 142.67-34.02 141.84-33.7 141.54-32.83 141.24-31.95 141.24-30.1L141.24-30.1 141.24-5.3Q141.24-3.5 141.54-2.6 141.84-1.7 142.67-1.4 143.49-1.1 145.09-1L145.09-1 145.09 0Q143.84-0.1 141.89-0.13 139.94-0.15 137.94-0.15L137.94-0.15Q135.69-0.15 133.74-0.13 131.79-0.1 130.54 0ZM158.24-17.3L138.49-17.3 138.49-18.3 158.24-18.3 158.24-17.3ZM199.34-35.4L199.34-35.4Q199.14-33.1 199.06-30.93 198.99-28.75 198.99-27.6L198.99-27.6Q198.99-26.45 199.04-25.45 199.09-24.45 199.14-23.7L199.14-23.7 197.99-23.7Q197.29-27.7 196.29-29.98 195.29-32.25 193.66-33.25 192.04-34.25 189.39-34.25L189.39-34.25 187.79-34.25 187.79-5.75Q187.79-3.7 188.16-2.7 188.54-1.7 189.69-1.38 190.84-1.05 193.04-1L193.04-1 193.04 0Q191.54-0.1 189.14-0.13 186.74-0.15 184.24-0.15L184.24-0.15Q181.64-0.15 179.36-0.13 177.09-0.1 175.69 0L175.69 0 175.69-1Q177.84-1.05 178.99-1.38 180.14-1.7 180.54-2.7 180.94-3.7 180.94-5.75L180.94-5.75 180.94-34.25 179.29-34.25Q176.69-34.25 175.04-33.25 173.39-32.25 172.39-29.98 171.39-27.7 170.74-23.7L170.74-23.7 169.59-23.7Q169.69-24.45 169.71-25.45 169.74-26.45 169.74-27.6L169.74-27.6Q169.74-28.75 169.66-30.93 169.59-33.1 169.39-35.4L169.39-35.4Q171.59-35.35 174.24-35.3 176.89-35.25 179.54-35.25 182.19-35.25 184.39-35.25L184.39-35.25Q186.54-35.25 189.19-35.25 191.84-35.25 194.49-35.3 197.14-35.35 199.34-35.4ZM216.99-35.4L216.99-35.4 216.99-34.4Q215.39-34.35 214.56-34.02 213.74-33.7 213.44-32.83 213.14-31.95 213.14-30.1L213.14-30.1 213.14-5.3Q213.14-3.5 213.44-2.6 213.74-1.7 214.56-1.4 215.39-1.1 216.99-1L216.99-1 216.99 0Q215.74-0.1 213.79-0.13 211.84-0.15 209.84-0.15L209.84-0.15Q207.59-0.15 205.64-0.13 203.69-0.1 202.44 0L202.44 0 202.44-1Q204.09-1.1 204.91-1.4 205.74-1.7 206.01-2.6 206.29-3.5 206.29-5.3L206.29-5.3 206.29-30.1Q206.29-31.95 206.01-32.83 205.74-33.7 204.91-34.02 204.09-34.35 202.44-34.4L202.44-34.4 202.44-35.4Q203.69-35.35 205.64-35.3 207.59-35.25 209.84-35.25L209.84-35.25Q211.84-35.25 213.79-35.3 215.74-35.35 216.99-35.4Z" fill="#ffffff" data-fill-palette-color="primary"></path></g></svg></g></svg></g></svg></g></svg></g><g><svg viewBox="0 0 131.07067666875116 130.30623784336507" height="130.30623784336507" width="131.07067666875116"><g><svg xmlns="http://www.w3.org/2000/svg" viewBox="20 20.17376136779785 60.018585205078125 59.668540954589844" x="0" y="0" height="130.30623784336507" width="131.07067666875116" class="icon-icon-0" data-fill-palette-color="accent" id="icon-0"><g data-name="Calque 2" fill="#399495" data-fill-palette-color="accent"><path d="M23.82 23.07A1.82 1.82 0 1 1 22 24.88 1.82 1.82 0 0 1 23.82 23.07Zm0 5.58a3.73 3.73 0 0 0 2-0.56c2.07 1.44 9.08 6.45 10.21 7.14a6.25 6.25 0 0 0 3.19 1.25c0.63 0 2 0.06 4.13 0.06A2.75 2.75 0 0 0 45.8 38a2.76 2.76 0 1 0-2.69-3.32c-1.94 0-3.26 0-3.82-0.06A3.81 3.81 0 0 1 37 33.71c-1-0.63-7.64-5.39-9.9-7A4 4 0 0 0 27.57 25a3.7 3.7 0 0 0-3.7-3.7 3.74 3.74 0 0 0-3.7 3.7A3.6 3.6 0 0 0 23.82 28.64Z" fill="#ffffff" data-fill-palette-color="accent"></path><path d="M22.13 44.61a1.82 1.82 0 1 1 1.82 1.82A1.78 1.78 0 0 1 22.13 44.61Zm5.39 0.94H33a2.71 2.71 0 0 0 2.57 1.82 2.76 2.76 0 0 0 0-5.51A2.71 2.71 0 0 0 33 43.67H27.52a3.76 3.76 0 0 0-3.57-2.76 3.7 3.7 0 0 0-3.7 3.7 3.74 3.74 0 0 0 3.7 3.7A3.52 3.52 0 0 0 27.52 45.55Z" fill="#ffffff" data-fill-palette-color="accent"></path><path d="M28.33 49.87a1.82 1.82 0 1 1-1.82 1.82A1.82 1.82 0 0 1 28.33 49.87Zm0 5.58a3.7 3.7 0 0 0 3.57-2.76H33a2.72 2.72 0 0 0 2.57 1.82 2.76 2.76 0 0 0 0-5.51A2.71 2.71 0 0 0 33 50.81H31.9a3.76 3.76 0 0 0-3.57-2.76 3.7 3.7 0 0 0 0 7.39Z" fill="#ffffff" data-fill-palette-color="accent"></path><path d="M23.7 75.24a1.82 1.82 0 1 1 1.82-1.82A1.78 1.78 0 0 1 23.7 75.24Zm1.06-5.39V63.4c0-2.94 1-3.57 2.69-3.57 2.07 0 4.38 0 5.39 0.06a2.73 2.73 0 0 0 2.63 1.82 2.76 2.76 0 1 0 0-5.51A2.71 2.71 0 0 0 32.9 58c-1.06 0-3.38-0.06-5.39-0.06-4.64 0-4.64 4.07-4.64 5.45v6.39A3.76 3.76 0 0 0 20 73.42a3.7 3.7 0 0 0 3.7 3.7 3.74 3.74 0 0 0 3.7-3.7A3.58 3.58 0 0 0 24.76 69.86Z" fill="#ffffff" data-fill-palette-color="accent"></path><path d="M75.06 75.24a1.82 1.82 0 1 1 1.82-1.82A1.82 1.82 0 0 1 75.06 75.24Zm0.81-5.45V63.4c0-1.31 0-5.45-4.57-5.45-2.07 0-4.38 0-5.39 0.06a2.71 2.71 0 0 0-2.57-1.82 2.76 2.76 0 1 0 0 5.51A2.85 2.85 0 0 0 66 59.9c1.06 0 3.38-0.06 5.39-0.06C73 59.83 74 60.4 74 63.4v6.45a3.7 3.7 0 0 0 1 7.26 3.71 3.71 0 0 0 0.82-7.33Z" fill="#ffffff" data-fill-palette-color="accent"></path><path d="M72.42 23.69A1.57 1.57 0 1 1 74 25.26 1.59 1.59 0 0 1 72.42 23.69ZM63.59 47.37A2.76 2.76 0 0 0 66 45.86h4.57c4.26 0 4.26-3.76 4.26-5V27a3.46 3.46 0 1 0-4.26-3.38A3.44 3.44 0 0 0 73.05 27v13.9c0 2.63-0.82 3.13-2.38 3.13H66.35a2.75 2.75 0 0 0-5.45 0.56A2.63 2.63 0 0 0 63.59 47.37Z" fill="#ffffff" data-fill-palette-color="accent"></path><path d="M76.37 50.13a1.82 1.82 0 1 1-1.82 1.82A1.78 1.78 0 0 1 76.37 50.13Zm-13 4.57A2.71 2.71 0 0 0 66 52.88h6.77a3.76 3.76 0 0 0 3.57 2.76A3.7 3.7 0 1 0 72.74 51H66a2.71 2.71 0 0 0-2.57-1.82 2.78 2.78 0 0 0-2.76 2.76A2.73 2.73 0 0 0 63.4 54.7Z" fill="#ffffff" data-fill-palette-color="accent"></path><rect x="40.48" y="39.98" width="18.04" height="23.93" rx="3.95" ry="3.95" fill="#ffffff" data-fill-palette-color="accent"></rect><path d="M40.48 24.45a1.82 1.82 0 1 1-1.82 1.82A1.86 1.86 0 0 1 40.48 24.45Zm0 5.58A3.7 3.7 0 0 0 44 27.33h6.26c0.69 0 1.31 0 1.57 0.25s0.31 0.44 0.31 1.25c0 1.13 0 2.63-0.06 3.82a2.76 2.76 0 1 0 3.76 2.57 2.76 2.76 0 0 0-1.94-2.63c0-1.19 0.06-2.63 0.06-3.76a3.32 3.32 0 0 0-0.82-2.57 3.69 3.69 0 0 0-2.88-0.75h-6.2A3.71 3.71 0 1 0 40.48 30Z" fill="#ffffff" data-fill-palette-color="accent"></path><path d="M35 76.18a1.82 1.82 0 1 1-1.82-1.82A1.78 1.78 0 0 1 35 76.18ZM45.8 66A2.71 2.71 0 0 0 43.3 67.6h-7c-1.31 0-4.07 0-4.07 3.7v1.25a3.68 3.68 0 0 0 0.88 7.27 3.74 3.74 0 0 0 3.7-3.7 3.7 3.7 0 0 0-2.69-3.57c0-0.37-0.06-0.82-0.06-1.25 0-1.69 0.56-1.82 2.19-1.82h6.83a2.69 2.69 0 0 0 2.63 2 2.78 2.78 0 0 0 2.76-2.76A2.69 2.69 0 0 0 45.8 66Z" fill="#ffffff" data-fill-palette-color="accent"></path><path d="M62.71 78a1.82 1.82 0 0 1-1.82-1.82 1.87 1.87 0 0 1 1.82-1.88 1.82 1.82 0 0 1 1.82 1.82A1.87 1.87 0 0 1 62.71 78Zm0.88-5.45V71.29c0-3.7-2.76-3.7-4.07-3.7H55.7A2.67 2.67 0 0 0 53.2 66a2.76 2.76 0 1 0 2.63 3.51h3.7c1.63 0 2.19 0.12 2.19 1.82a8.09 8.09 0 0 1-0.06 1.25 3.7 3.7 0 1 0 4.7 3.57A3.57 3.57 0 0 0 63.59 72.55Z" fill="#ffffff" data-fill-palette-color="accent"></path></g></svg></g></svg></g></svg></g><defs></defs></svg><rect width="395.5199999999999" height="95.04470733636744" fill="none" stroke="none" visibility="hidden"></rect></g></svg></g></svg>